<svg width="20" height="20" viewBox="0 0 20 20" fill="none" xmlns="http://www.w3.org/2000/svg">
<path d="M8.09587 10C9.05503 10 9.76253 9.2925 9.76253 8.33334C9.76253 7.37417 9.05503 6.66667 8.09587 6.66667C7.1367 6.66667 6.4292 7.37417 6.4292 8.33334C6.4292 9.2925 7.13587 10 8.09587 10Z" fill="white"/>
<path d="M16.6666 3.33333H3.33329C2.41413 3.33333 1.66663 4.03416 1.66663 4.89583V15.1042C1.66663 15.9658 2.41413 16.6667 3.33329 16.6667H16.6666C17.5858 16.6667 18.3333 15.9658 18.3333 15.1042V4.89583C18.3333 4.03416 17.5858 3.33333 16.6666 3.33333ZM16.6666 15L3.33329 14.9908V4.99999L16.6666 5.00916V15Z" fill="white"/>
<path d="M11.6667 7.5H15V9.16667H11.6667V7.5ZM12.5 10.8333H15V12.5H12.5V10.8333ZM11.1917 12.9467C11.1917 11.8017 9.795 10.625 8.09583 10.625C6.39667 10.625 5 11.8017 5 12.9467V13.3333H11.1917V12.9467Z" fill="white"/>
</svg>
