<svg width="20" height="20" viewBox="0 0 20 20" fill="none" xmlns="http://www.w3.org/2000/svg">
<path d="M11.2203 1.90106C11.145 1.82663 11.0555 1.7676 10.9569 1.72737C10.8583 1.68714 10.7526 1.66651 10.6459 1.66666H4.95837C4.06219 1.66666 3.33337 2.38426 3.33337 3.26666V16.0667C3.33337 16.9491 4.06219 17.6667 4.95837 17.6667H14.7084C15.6046 17.6667 16.3334 16.9491 16.3334 16.0667V7.26666C16.3335 7.16159 16.3126 7.05752 16.2717 6.96045C16.2309 6.86338 16.1709 6.77523 16.0953 6.70106L11.2203 1.90106ZM4.95837 3.26666H10.3095L14.7084 7.59786L14.71 14.9371L12.6235 12.8827C12.9079 12.4067 13.0834 11.8579 13.0834 11.2667C13.0834 9.50186 11.6257 8.06666 9.83337 8.06666C8.041 8.06666 6.58337 9.50186 6.58337 11.2667C6.58337 13.0315 8.041 14.4667 9.83337 14.4667C10.4338 14.4667 10.9912 14.2939 11.4746 14.0139L13.5595 16.0667H4.95837V3.26666ZM9.83337 12.8667C8.93719 12.8667 8.20837 12.1491 8.20837 11.2667C8.20837 10.3843 8.93719 9.66666 9.83337 9.66666C10.7296 9.66666 11.4584 10.3843 11.4584 11.2667C11.4584 12.1491 10.7296 12.8667 9.83337 12.8667Z" fill="white"/>
</svg>
