<svg width="20" height="20" viewBox="0 0 20 20" fill="none" xmlns="http://www.w3.org/2000/svg">
<path d="M17.5 4.16667C17.5 3.2475 16.7525 2.5 15.8333 2.5H4.16667C3.2475 2.5 2.5 3.2475 2.5 4.16667V15.8333C2.5 16.7525 3.2475 17.5 4.16667 17.5H15.8333C16.7525 17.5 17.5 16.7525 17.5 15.8333V4.16667ZM4.16667 15.8333V4.16667H15.8333L15.835 15.8333H4.16667Z" fill="white"/>
<path d="M5.83337 5.83333H7.49837V7.5H5.83337V5.83333ZM9.16671 5.83333H14.1667V7.5H9.16671V5.83333ZM5.83337 9.16667H7.49837V10.8333H5.83337V9.16667ZM9.16671 9.16667H14.1667V10.8333H9.16671V9.16667ZM5.83337 12.5H7.49837V14.1667H5.83337V12.5ZM9.16671 12.5H14.1667V14.1667H9.16671V12.5Z" fill="white"/>
</svg>
