<svg width="20" height="20" viewBox="0 0 20 20" fill="none" xmlns="http://www.w3.org/2000/svg">
<path d="M2.50003 10.8333H3.33336V16.6667C3.33336 17.5858 4.08086 18.3333 5.00003 18.3333H15C15.9192 18.3333 16.6667 17.5858 16.6667 16.6667V10.8333H17.5C17.6648 10.8333 17.8259 10.7844 17.9629 10.6928C18.0999 10.6013 18.2067 10.4711 18.2698 10.3189C18.3328 10.1666 18.3493 9.99911 18.3172 9.83748C18.285 9.67585 18.2057 9.52738 18.0892 9.41084L10.5892 1.91084C10.5119 1.83338 10.42 1.77194 10.3189 1.73001C10.2178 1.68808 10.1095 1.6665 10 1.6665C9.89058 1.6665 9.78221 1.68808 9.68112 1.73001C9.58002 1.77194 9.48818 1.83338 9.41086 1.91084L1.91086 9.41084C1.79435 9.52738 1.71501 9.67585 1.68287 9.83748C1.65073 9.99911 1.66724 10.1666 1.73029 10.3189C1.79335 10.4711 1.90014 10.6013 2.03714 10.6928C2.17415 10.7844 2.33523 10.8333 2.50003 10.8333ZM8.33336 16.6667V12.5H11.6667V16.6667H8.33336ZM10 3.67834L15 8.67834V12.5L15.0009 16.6667H13.3334V12.5C13.3334 11.5808 12.5859 10.8333 11.6667 10.8333H8.33336C7.41419 10.8333 6.66669 11.5808 6.66669 12.5V16.6667H5.00003V8.67834L10 3.67834Z" fill="white"/>
</svg>
