<svg width="10" height="10" viewBox="0 0 10 10" fill="none" xmlns="http://www.w3.org/2000/svg">
<path d="M7.91171 0.838318L9.16171 2.08832L8.20879 3.04165L6.95879 1.79165L7.91171 0.838318ZM3.33337 6.66665H4.58337L7.61962 3.6304L6.36962 2.3804L3.33337 5.41665V6.66665Z" fill="#333333"/>
<path d="M7.91667 7.91667H3.39917C3.38833 7.91667 3.37708 7.92083 3.36625 7.92083C3.3525 7.92083 3.33875 7.91708 3.32458 7.91667H2.08333V2.08333H4.93625L5.76958 1.25H2.08333C1.62375 1.25 1.25 1.62333 1.25 2.08333V7.91667C1.25 8.37667 1.62375 8.75 2.08333 8.75H7.91667C8.13768 8.75 8.34964 8.6622 8.50592 8.50592C8.6622 8.34964 8.75 8.13768 8.75 7.91667V4.305L7.91667 5.13833V7.91667Z" fill="#333333"/>
</svg>
