<svg width="10" height="10" viewBox="0 0 10 10" fill="none" xmlns="http://www.w3.org/2000/svg">
<path d="M2.08333 8.33337C2.08333 8.55439 2.17113 8.76635 2.32741 8.92263C2.48369 9.07891 2.69565 9.16671 2.91667 9.16671H7.08333C7.30435 9.16671 7.51631 9.07891 7.67259 8.92263C7.82887 8.76635 7.91667 8.55439 7.91667 8.33337V3.33337H8.75V2.50004H7.08333V1.66671C7.08333 1.44569 6.99554 1.23373 6.83926 1.07745C6.68297 0.921171 6.47101 0.833374 6.25 0.833374H3.75C3.52899 0.833374 3.31702 0.921171 3.16074 1.07745C3.00446 1.23373 2.91667 1.44569 2.91667 1.66671V2.50004H1.25V3.33337H2.08333V8.33337ZM3.75 1.66671H6.25V2.50004H3.75V1.66671ZM3.33333 3.33337H7.08333V8.33337H2.91667V3.33337H3.33333Z" fill="#333333"/>
<path d="M3.75 4.16663H4.58333V7.49996H3.75V4.16663ZM5.41667 4.16663H6.25V7.49996H5.41667V4.16663Z" fill="#333333"/>
</svg>
