<svg width="80" height="55" viewBox="0 0 80 55" fill="none" xmlns="http://www.w3.org/2000/svg">
<path d="M60.7974 10.2793C60.7974 10.2793 53.7271 17.4603 53.588 17.6262C52.1507 18.5505 51.0148 16.6782 51.8494 15.6591L58.827 8.49421C59.7774 7.36421 61.8869 8.85729 60.7974 10.2793ZM50.9453 5.82847C50.9453 5.82847 48.2563 12.8151 48.0244 13.4313C47.4913 14.4504 45.7063 13.692 46.0077 12.6729L49.1242 5.01794C49.5127 3.96662 51.4089 4.31169 50.9453 5.82847ZM41.5865 11.7487C41.58 12.8521 38.891 12.8777 38.891 11.7487C38.891 11.7487 38.891 1.69146 38.891 1.13119C38.891 -0.385585 41.58 -0.368521 41.58 1.13119C41.58 1.51039 41.58 11.5335 41.5865 11.7487ZM56.9724 27.3904C57.0197 27.3848 58.0796 27.3904 58.1315 27.3904C60.4265 27.3904 66.0595 27.3904 68.1922 27.3904C69.2586 27.3904 69.1427 29.0968 68.4009 29.0968C68.4009 29.0968 57.1347 29.0968 56.8102 29.0968C56.1657 29.0968 55.8718 27.5203 56.9724 27.3904ZM64.4832 19.925C64.4832 19.925 56.6247 23.243 56.6015 23.2667C55.4888 23.6222 54.7303 21.8447 55.5649 21.3707L63.695 17.9817C64.715 17.6499 65.4105 19.4985 64.4832 19.925ZM19.7664 10.2793C19.7664 10.2793 26.8367 17.4603 26.9758 17.6262C28.413 18.5505 29.5489 16.6782 28.7144 15.6591L21.7368 8.49421C20.7863 7.36421 18.6768 8.85729 19.7664 10.2793ZM29.6184 5.82847C29.6184 5.82847 32.3075 12.8151 32.5393 13.4313C33.0725 14.4504 34.8574 13.692 34.5561 12.6729L31.4396 5.01794C31.051 3.96662 29.1548 4.31169 29.6184 5.82847ZM38.891 11.7487H40.2559H41.6208H38.891ZM23.5913 27.3904C23.544 27.3848 22.4841 27.3904 22.4322 27.3904C20.1373 27.3904 14.5042 27.3904 12.3715 27.3904C11.3052 27.3904 11.4211 29.0968 12.1629 29.0968C12.1629 29.0968 23.429 29.0968 23.7536 29.0968C24.398 29.0968 24.6919 27.5203 23.5913 27.3904ZM16.0805 19.925C16.0805 19.925 23.939 23.243 23.9622 23.2667C25.0749 23.6222 25.7471 21.8447 24.9126 21.3707L16.8687 17.9817C15.8487 17.6499 15.1533 19.4985 16.0805 19.925ZM26.7439 29.0968V27.9592C26.7495 24.5692 28.3249 20.9716 30.6542 18.5903C35.1922 13.9499 42.5629 13.329 47.8547 17.0261C49.9485 18.4888 51.3078 20.2379 52.4048 22.5557C53.4276 24.7162 53.6343 26.742 53.6343 29.0968H26.7439Z" fill="#E7AE00"/>
<path d="M2.09277 38.0968H1.3457V31.672H4.92725V32.3356H2.09277V34.6866H4.75586V35.3502H2.09277V38.0968ZM10.8467 31.672V35.8292C10.8467 36.5616 10.6255 37.1373 10.1831 37.5563C9.74072 37.9752 9.13281 38.1847 8.35938 38.1847C7.58594 38.1847 6.98682 37.9738 6.56201 37.5519C6.14014 37.13 5.9292 36.5499 5.9292 35.8116V31.672H6.67627V35.8644C6.67627 36.4005 6.82275 36.8121 7.11572 37.0992C7.40869 37.3864 7.83936 37.5299 8.40771 37.5299C8.94971 37.5299 9.36719 37.3864 9.66016 37.0992C9.95312 36.8092 10.0996 36.3947 10.0996 35.8556V31.672H10.8467ZM17.5703 38.0968H16.7178L13.2065 32.7047H13.1714C13.2183 33.3375 13.2417 33.9176 13.2417 34.4449V38.0968H12.5518V31.672H13.3955L16.8979 37.0421H16.9331C16.9272 36.963 16.9141 36.7096 16.8936 36.2819C16.873 35.8512 16.8657 35.5436 16.8716 35.359V31.672H17.5703V38.0968ZM24.4653 34.8229C24.4653 35.8834 24.1768 36.6949 23.5996 37.2574C23.0254 37.817 22.1978 38.0968 21.1167 38.0968H19.3369V31.672H21.3057C22.3047 31.672 23.0811 31.9489 23.6348 32.5026C24.1885 33.0563 24.4653 33.8297 24.4653 34.8229ZM23.6743 34.8492C23.6743 34.0114 23.4634 33.38 23.0415 32.9552C22.6226 32.5304 21.9985 32.318 21.1694 32.318H20.084V37.4508H20.9937C21.8843 37.4508 22.5537 37.2325 23.002 36.796C23.4502 36.3566 23.6743 35.7076 23.6743 34.8492ZM29.9409 38.0968L29.1411 36.0533H26.5659L25.7749 38.0968H25.019L27.5591 31.6456H28.1875L30.7144 38.0968H29.9409ZM28.9082 35.381L28.1611 33.3903C28.0645 33.1383 27.9648 32.8292 27.8623 32.463C27.7979 32.7443 27.7056 33.0533 27.5854 33.3903L26.8296 35.381H28.9082ZM34.3486 32.2477C33.6426 32.2477 33.0845 32.4835 32.6743 32.9552C32.2671 33.424 32.0635 34.067 32.0635 34.8844C32.0635 35.7252 32.2598 36.3756 32.6523 36.8356C33.0479 37.2926 33.6104 37.5211 34.3398 37.5211C34.7881 37.5211 35.2993 37.4406 35.8735 37.2794V37.9342C35.4282 38.1012 34.8789 38.1847 34.2256 38.1847C33.2793 38.1847 32.5483 37.8976 32.0327 37.3234C31.52 36.7491 31.2637 35.9332 31.2637 34.8756C31.2637 34.2135 31.3867 33.6334 31.6328 33.1354C31.8818 32.6373 32.2393 32.2535 32.7051 31.984C33.1738 31.7145 33.7246 31.5797 34.3574 31.5797C35.0312 31.5797 35.6201 31.7028 36.124 31.9489L35.8076 32.5905C35.3213 32.3619 34.835 32.2477 34.3486 32.2477ZM34.8892 39.3668C34.8892 39.651 34.7764 39.8707 34.5508 40.026C34.3281 40.1813 33.9971 40.2589 33.5576 40.2589C33.4082 40.2589 33.2676 40.2457 33.1357 40.2194V39.7535C33.2676 39.777 33.4199 39.7887 33.5928 39.7887C33.8242 39.7887 33.9985 39.7594 34.1157 39.7008C34.2358 39.6422 34.2959 39.5338 34.2959 39.3756C34.2959 39.2496 34.2373 39.1471 34.1201 39.068C34.0059 38.9918 33.7891 38.9288 33.4697 38.879L33.8564 38.0968H34.3398L34.0981 38.6022C34.6255 38.7164 34.8892 38.9713 34.8892 39.3668ZM41.314 38.0968L40.5142 36.0533H37.939L37.1479 38.0968H36.3921L38.9321 31.6456H39.5605L42.0874 38.0968H41.314ZM40.2812 35.381L39.5342 33.3903C39.4375 33.1383 39.3379 32.8292 39.2354 32.463C39.1709 32.7443 39.0786 33.0533 38.9585 33.3903L38.2026 35.381H40.2812ZM39.8726 31.149C39.7466 31.149 39.6235 31.1227 39.5034 31.0699C39.3833 31.0143 39.2646 30.9542 39.1475 30.8898C39.0332 30.8224 38.9219 30.7623 38.8135 30.7096C38.708 30.6539 38.6055 30.6261 38.5059 30.6261C38.3594 30.6261 38.248 30.67 38.1719 30.7579C38.0986 30.8458 38.0415 30.9791 38.0005 31.1578H37.5698C37.6079 30.8033 37.7104 30.5265 37.8774 30.3273C38.0474 30.1251 38.2656 30.024 38.5322 30.024C38.667 30.024 38.7974 30.0519 38.9233 30.1075C39.0493 30.1603 39.1694 30.2203 39.2837 30.2877C39.3979 30.3522 39.5078 30.4122 39.6133 30.4679C39.7188 30.5206 39.8184 30.547 39.9121 30.547C40.0557 30.547 40.1626 30.5045 40.2329 30.4196C40.3032 30.3317 40.3604 30.1969 40.4043 30.0153H40.8394C40.8013 30.3698 40.6987 30.6481 40.5317 30.8502C40.3677 31.0494 40.1479 31.149 39.8726 31.149ZM48.5474 34.8756C48.5474 35.9039 48.2866 36.7125 47.7651 37.3014C47.2466 37.8903 46.5244 38.1847 45.5986 38.1847C44.6523 38.1847 43.9214 37.8961 43.4058 37.319C42.8931 36.7389 42.6367 35.9215 42.6367 34.8668C42.6367 33.8209 42.8945 33.0109 43.4102 32.4366C43.9258 31.8595 44.6582 31.5709 45.6074 31.5709C46.5303 31.5709 47.251 31.8639 47.7695 32.4498C48.2881 33.0358 48.5474 33.8444 48.5474 34.8756ZM43.4277 34.8756C43.4277 35.7457 43.6123 36.4064 43.9814 36.8575C44.3535 37.3058 44.8926 37.5299 45.5986 37.5299C46.3105 37.5299 46.8481 37.3058 47.2114 36.8575C47.5747 36.4093 47.7563 35.7487 47.7563 34.8756C47.7563 34.0114 47.5747 33.3566 47.2114 32.9113C46.8511 32.463 46.3164 32.2389 45.6074 32.2389C44.8955 32.2389 44.3535 32.4645 43.9814 32.9156C43.6123 33.3639 43.4277 34.0172 43.4277 34.8756ZM55.9478 36.3873C55.9478 36.9528 55.7427 37.3937 55.3325 37.7101C54.9224 38.0265 54.3657 38.1847 53.6626 38.1847C52.9009 38.1847 52.3149 38.0865 51.9048 37.8903V37.1696C52.1685 37.2809 52.4556 37.3688 52.7661 37.4332C53.0767 37.4977 53.3843 37.5299 53.689 37.5299C54.187 37.5299 54.562 37.4362 54.814 37.2487C55.0659 37.0582 55.1919 36.7946 55.1919 36.4576C55.1919 36.235 55.1465 36.0533 55.0557 35.9127C54.9678 35.7692 54.8184 35.6373 54.6074 35.5172C54.3994 35.3971 54.0815 35.2609 53.6538 35.1085C53.0562 34.8947 52.6284 34.6412 52.3706 34.3483C52.1157 34.0553 51.9883 33.673 51.9883 33.2013C51.9883 32.7062 52.1743 32.3121 52.5464 32.0192C52.9185 31.7262 53.4106 31.5797 54.0229 31.5797C54.6616 31.5797 55.249 31.6969 55.7852 31.9313L55.5522 32.5817C55.022 32.359 54.5063 32.2477 54.0054 32.2477C53.6099 32.2477 53.3008 32.3326 53.0781 32.5026C52.8555 32.6725 52.7441 32.9083 52.7441 33.2101C52.7441 33.4327 52.7852 33.6158 52.8672 33.7594C52.9492 33.9 53.0869 34.0304 53.2803 34.1505C53.4766 34.2677 53.7754 34.3981 54.1768 34.5416C54.8506 34.7819 55.3135 35.0397 55.5654 35.3151C55.8203 35.5905 55.9478 35.9479 55.9478 36.3873ZM61.3003 38.0968L60.5005 36.0533H57.9253L57.1343 38.0968H56.3784L58.9185 31.6456H59.5469L62.0737 38.0968H61.3003ZM60.2676 35.381L59.5205 33.3903C59.4238 33.1383 59.3242 32.8292 59.2217 32.463C59.1572 32.7443 59.0649 33.0533 58.9448 33.3903L58.189 35.381H60.2676ZM67.9756 38.0968H67.123L63.6118 32.7047H63.5767C63.6235 33.3375 63.647 33.9176 63.647 34.4449V38.0968H62.957V31.672H63.8008L67.3032 37.0421H67.3384C67.3325 36.963 67.3193 36.7096 67.2988 36.2819C67.2783 35.8512 67.271 35.5436 67.2769 35.359V31.672H67.9756V38.0968ZM71.7197 38.0968H70.9727V32.3356H68.938V31.672H73.7544V32.3356H71.7197V38.0968ZM78.7642 38.0968L77.9644 36.0533H75.3892L74.5981 38.0968H73.8423L76.3823 31.6456H77.0107L79.5376 38.0968H78.7642ZM77.7314 35.381L76.9844 33.3903C76.8877 33.1383 76.7881 32.8292 76.6855 32.463C76.6211 32.7443 76.5288 33.0533 76.4087 33.3903L75.6528 35.381H77.7314Z" fill="#E7AE00"/>
<path d="M16.7664 42.5121C15.9688 42.5121 15.3513 42.8128 14.9138 43.4144C14.4763 44.0114 14.2576 44.8454 14.2576 45.9164C14.2576 48.1449 15.0938 49.2591 16.7664 49.2591C17.4682 49.2591 18.3181 49.0837 19.3162 48.7328V50.5101C18.4958 50.8519 17.5798 51.0228 16.5681 51.0228C15.1143 51.0228 14.0024 50.583 13.2322 49.7035C12.462 48.8193 12.0769 47.5524 12.0769 45.9027C12.0769 44.8636 12.266 43.9544 12.6443 43.1751C13.0225 42.3913 13.5649 41.792 14.2712 41.3773C14.9822 40.958 15.8139 40.7484 16.7664 40.7484C17.7371 40.7484 18.7123 40.9831 19.6921 41.4525L19.0085 43.1751C18.6348 42.9974 18.2589 42.8425 17.8806 42.7103C17.5024 42.5781 17.1309 42.5121 16.7664 42.5121ZM27.5671 50.8861L26.8425 48.5072H23.199L22.4744 50.8861H20.1912L23.7185 40.8509H26.3093L29.8503 50.8861H27.5671ZM26.3367 46.7298C25.6667 44.5742 25.2885 43.3552 25.2019 43.0726C25.1199 42.79 25.0606 42.5667 25.0242 42.4027C24.8738 42.986 24.4431 44.4284 23.7322 46.7298H26.3367ZM31.115 40.8919H34.2253C35.6427 40.8919 36.6703 41.0947 37.3083 41.5003C37.9509 41.9014 38.2722 42.5417 38.2722 43.4212C38.2722 44.0182 38.1309 44.5081 37.8484 44.891C37.5704 45.2738 37.199 45.5039 36.7341 45.5814V45.6497C37.3676 45.791 37.8233 46.0553 38.1013 46.4427C38.3839 46.8301 38.5251 47.3451 38.5251 47.9876C38.5251 48.8991 38.1947 49.61 37.5339 50.1205C36.8777 50.6309 35.9845 50.8861 34.8542 50.8861H31.115V40.8919ZM33.2341 44.8499H34.4646C35.0388 44.8499 35.4535 44.7611 35.7087 44.5833C35.9685 44.4056 36.0984 44.1117 36.0984 43.7015C36.0984 43.3187 35.9571 43.0453 35.6746 42.8812C35.3966 42.7126 34.9545 42.6283 34.3484 42.6283H33.2341V44.8499ZM33.2341 46.5316V49.1361H34.615C35.1983 49.1361 35.629 49.0244 35.907 48.8011C36.185 48.5778 36.324 48.236 36.324 47.7757C36.324 46.9463 35.7315 46.5316 34.5466 46.5316H33.2341ZM42.6404 45.3285H43.324C43.9939 45.3285 44.4884 45.2168 44.8074 44.9935C45.1264 44.7702 45.2859 44.4193 45.2859 43.9408C45.2859 43.4668 45.1218 43.1296 44.7937 42.929C44.4701 42.7285 43.9666 42.6283 43.283 42.6283H42.6404V45.3285ZM42.6404 47.0511V50.8861H40.5212V40.8919H43.4333C44.7914 40.8919 45.7963 41.1403 46.448 41.6371C47.0997 42.1292 47.4255 42.8789 47.4255 43.8861C47.4255 44.474 47.2638 44.9981 46.9402 45.4583C46.6166 45.9141 46.1586 46.2718 45.5662 46.5316C47.0701 48.7783 48.0499 50.2298 48.5056 50.8861H46.1541L43.7683 47.0511H42.6404ZM49.7634 50.8861V40.8919H51.8826V50.8861H49.7634ZM63.2644 50.8861H60.571L56.2234 43.3255H56.1619C56.2485 44.6608 56.2917 45.6133 56.2917 46.183V50.8861H54.3982V40.8919H57.071L61.4119 48.3773H61.4597C61.3914 47.0785 61.3572 46.1602 61.3572 45.6224V40.8919H63.2644V50.8861ZM65.7869 50.8861V40.8919H67.906V50.8861H65.7869Z" fill="#E7AE00"/>
</svg>
