<svg width="20" height="20" viewBox="0 0 20 20" fill="none" xmlns="http://www.w3.org/2000/svg">
<path d="M16.8666 3.33333H2.46663C2.25445 3.33333 2.05097 3.41893 1.90094 3.57131C1.75091 3.72368 1.66663 3.93034 1.66663 4.14583V15.5208C1.66663 15.7363 1.75091 15.943 1.90094 16.0954C2.05097 16.2477 2.25445 16.3333 2.46663 16.3333H16.8666C17.0788 16.3333 17.2823 16.2477 17.4323 16.0954C17.5823 15.943 17.6666 15.7363 17.6666 15.5208V4.14583C17.6666 3.93034 17.5823 3.72368 17.4323 3.57131C17.2823 3.41893 17.0788 3.33333 16.8666 3.33333ZM16.0666 12.2708C15.4301 12.2708 14.8197 12.5276 14.3696 12.9848C13.9195 13.4419 13.6666 14.0619 13.6666 14.7083H5.66663C5.66663 14.0619 5.41377 13.4419 4.96368 12.9848C4.51359 12.5276 3.90315 12.2708 3.26663 12.2708V7.39583C3.90315 7.39583 4.51359 7.13902 4.96368 6.68191C5.41377 6.22479 5.66663 5.6048 5.66663 4.95833H13.6666C13.6666 5.6048 13.9195 6.22479 14.3696 6.68191C14.8197 7.13902 15.4301 7.39583 16.0666 7.39583V12.2708Z" fill="white"/>
<path d="M9.66667 6.58334C7.90187 6.58334 6.46667 8.04096 6.46667 9.83334C6.46667 11.6257 7.90187 13.0833 9.66667 13.0833C11.4315 13.0833 12.8667 11.6257 12.8667 9.83334C12.8667 8.04096 11.4315 6.58334 9.66667 6.58334ZM9.66667 11.4583C8.78427 11.4583 8.06667 10.7295 8.06667 9.83334C8.06667 8.93715 8.78427 8.20834 9.66667 8.20834C10.5491 8.20834 11.2667 8.93715 11.2667 9.83334C11.2667 10.7295 10.5491 11.4583 9.66667 11.4583Z" fill="white"/>
</svg>
