<svg width="20" height="20" viewBox="0 0 20 20" fill="none" xmlns="http://www.w3.org/2000/svg">
<path fill-rule="evenodd" clip-rule="evenodd" d="M12.7877 14.4035C11.4525 15.4035 9.79438 15.9958 7.99791 15.9958C3.58079 15.9958 0 12.415 0 7.99788C0 3.58077 3.58079 0 7.99791 0C12.415 0 15.9958 3.58077 15.9958 7.99788C15.9958 9.79438 15.4035 11.4525 14.4035 12.7877L19.6654 18.0495C20.1116 18.4957 20.1115 19.2192 19.6654 19.6654C19.2192 20.1115 18.4957 20.1115 18.0495 19.6654L12.7877 14.4035ZM13.7107 7.99788C13.7107 11.153 11.153 13.7106 7.99791 13.7106C4.84282 13.7106 2.28512 11.153 2.28512 7.99788C2.28512 4.8428 4.84282 2.28511 7.99791 2.28511C11.153 2.28511 13.7107 4.8428 13.7107 7.99788Z" fill="#F2F2F2"/>
</svg>
